<svg width="24" height="24" viewBox="0 0 24 24" fill="none" xmlns="http://www.w3.org/2000/svg">
<path d="M20.5 9C20.2239 9 20 8.77614 20 8.5V6.5C20 6.22386 19.7761 6 19.5 6H18.5C18.2239 6 18 6.22386 18 6.5V8.5C18 8.77614 17.7761 9 17.5 9H15.5C15.2239 9 15 9.22386 15 9.5V10.5C15 10.7761 15.2239 11 15.5 11H17.5C17.7761 11 18 11.2239 18 11.5V13.5C18 13.7761 18.2239 14 18.5 14H19.5C19.7761 14 20 13.7761 20 13.5V11.5C20 11.2239 20.2239 11 20.5 11H22.5C22.7761 11 23 10.7761 23 10.5V9.5C23 9.22386 22.7761 9 22.5 9H20.5ZM9 12C11.21 12 13 10.21 13 8C13 5.79 11.21 4 9 4C6.79 4 5 5.79 5 8C5 10.21 6.79 12 9 12ZM9 6C10.1 6 11 6.9 11 8C11 9.1 10.1 10 9 10C7.9 10 7 9.1 7 8C7 6.9 7.9 6 9 6ZM15.39 14.56C13.71 13.7 11.53 13 9 13C6.47 13 4.29 13.7 2.61 14.56C1.61 15.07 1 16.1 1 17.22V19C1 19.5523 1.44772 20 2 20H16C16.5523 20 17 19.5523 17 19V17.22C17 16.1 16.39 15.07 15.39 14.56ZM15 18H3V17.22C3 16.84 3.2 16.5 3.52 16.34C4.71 15.73 6.63 15 9 15C11.37 15 13.29 15.73 14.48 16.34C14.8 16.5 15 16.84 15 17.22V18Z" fill="black"/>
</svg>
