<svg width="24" height="24" viewBox="0 0 24 24" fill="none" xmlns="http://www.w3.org/2000/svg">
<path d="M16 6.74722V17.3272C16 19.4172 14.47 21.2772 12.39 21.4772C10 21.7072 8 19.8372 8 17.4972V5.13722C8 3.82722 8.94 2.63722 10.24 2.50722C11.74 2.35722 13 3.52722 13 4.99722V15.4972C13 16.0472 12.55 16.4972 12 16.4972C11.45 16.4972 11 16.0472 11 15.4972V6.74722C11 6.33722 10.66 5.99722 10.25 5.99722C9.84 5.99722 9.5 6.33722 9.5 6.74722V15.3572C9.5 16.6672 10.44 17.8572 11.74 17.9872C13.24 18.1372 14.5 16.9672 14.5 15.4972V5.16722C14.5 3.07722 12.97 1.21722 10.89 1.01722C8.51 0.787216 6.5 2.65722 6.5 4.99722V17.2672C6.5 20.1372 8.6 22.7072 11.46 22.9772C14.75 23.2772 17.5 20.7172 17.5 17.4972V6.74722C17.5 6.33722 17.16 5.99722 16.75 5.99722C16.34 5.99722 16 6.33722 16 6.74722Z" fill="black"/>
</svg>
