<svg width="24" height="25" viewBox="0 0 24 25" fill="none" xmlns="http://www.w3.org/2000/svg">
<g id="Buy">
<path id="Vector" d="M13.1719 10C13.7219 10 14.1719 9.55 14.1719 9V7H16.1719C16.7219 7 17.1719 6.55 17.1719 6C17.1719 5.45 16.7219 5 16.1719 5H14.1719V3C14.1719 2.45 13.7219 2 13.1719 2C12.6219 2 12.1719 2.45 12.1719 3V5H10.1719C9.62187 5 9.17188 5.45 9.17188 6C9.17188 6.55 9.62187 7 10.1719 7H12.1719V9C12.1719 9.55 12.6219 10 13.1719 10ZM8.17188 19C7.07188 19 6.18188 19.9 6.18188 21C6.18188 22.1 7.07188 23 8.17188 23C9.27187 23 10.1719 22.1 10.1719 21C10.1719 19.9 9.27187 19 8.17188 19ZM18.1719 19C17.0719 19 16.1819 19.9 16.1819 21C16.1819 22.1 17.0719 23 18.1719 23C19.2719 23 20.1719 22.1 20.1719 21C20.1719 19.9 19.2719 19 18.1719 19ZM9.27188 14H16.7219C17.4719 14 18.1319 13.59 18.4719 12.97L21.7119 6.83C21.9619 6.35 21.7919 5.75 21.3119 5.49C20.8219 5.22 20.2119 5.41 19.9519 5.9L16.7219 12H9.70187L5.44187 3H3.17188C2.62187 3 2.17188 3.45 2.17188 4C2.17188 4.55 2.62187 5 3.17188 5H4.17188L7.77187 12.59L6.42188 15.03C5.69187 16.37 6.65188 18 8.17188 18H19.1719C19.7219 18 20.1719 17.55 20.1719 17C20.1719 16.45 19.7219 16 19.1719 16H8.17188L9.27188 14Z" fill="#3A3A3A"/>
</g>
</svg>
