<svg width="16" height="17" viewBox="0 0 16 17" fill="none" xmlns="http://www.w3.org/2000/svg">
<g id="close">
<path id="Vector" d="M12.2 4.30616C11.94 4.04616 11.52 4.04616 11.26 4.30616L7.99998 7.55949L4.73998 4.29949C4.47998 4.03949 4.05998 4.03949 3.79998 4.29949C3.53998 4.55949 3.53998 4.97949 3.79998 5.23949L7.05998 8.49949L3.79998 11.7595C3.53998 12.0195 3.53998 12.4395 3.79998 12.6995C4.05998 12.9595 4.47998 12.9595 4.73998 12.6995L7.99998 9.43949L11.26 12.6995C11.52 12.9595 11.94 12.9595 12.2 12.6995C12.46 12.4395 12.46 12.0195 12.2 11.7595L8.93998 8.49949L12.2 5.23949C12.4533 4.98616 12.4533 4.55949 12.2 4.30616Z" fill="#E10000"/>
</g>
</svg>
