<svg width="32" height="33" viewBox="0 0 32 33" fill="none" xmlns="http://www.w3.org/2000/svg">
<g id="content_paste">
<path id="Vector" d="M25.3333 4.49992H19.76C19.2 2.95325 17.7333 1.83325 16 1.83325C14.2667 1.83325 12.8 2.95325 12.24 4.49992H6.66667C5.2 4.49992 4 5.69992 4 7.16658V28.4999C4 29.9666 5.2 31.1666 6.66667 31.1666H25.3333C26.8 31.1666 28 29.9666 28 28.4999V7.16658C28 5.69992 26.8 4.49992 25.3333 4.49992ZM16 4.49992C16.7333 4.49992 17.3333 5.09992 17.3333 5.83325C17.3333 6.56659 16.7333 7.16658 16 7.16658C15.2667 7.16658 14.6667 6.56659 14.6667 5.83325C14.6667 5.09992 15.2667 4.49992 16 4.49992ZM25.3333 28.4999H6.66667V7.16658H9.33333V11.1666H22.6667V7.16658H25.3333V28.4999Z" fill="black"/>
</g>
</svg>
