<svg width="18" height="18" viewBox="0 0 18 18" fill="none" xmlns="http://www.w3.org/2000/svg">
<g id="delete">
<path id="Vector" d="M12 6.75V14.25H6V6.75H12ZM11.0214 2.39645C10.9277 2.30268 10.8005 2.25 10.6679 2.25H7.33211C7.1995 2.25 7.07232 2.30268 6.97855 2.39645L6.375 3H4.25C3.97386 3 3.75 3.22386 3.75 3.5V4C3.75 4.27614 3.97386 4.5 4.25 4.5H13.75C14.0261 4.5 14.25 4.27614 14.25 4V3.5C14.25 3.22386 14.0261 3 13.75 3H11.625L11.0214 2.39645ZM13.5 5.75C13.5 5.47386 13.2761 5.25 13 5.25H5C4.72386 5.25 4.5 5.47386 4.5 5.75V14.25C4.5 15.075 5.175 15.75 6 15.75H12C12.825 15.75 13.5 15.075 13.5 14.25V5.75Z" fill="#595959"/>
</g>
</svg>
