<svg width="32" height="33" viewBox="0 0 32 33" fill="none" xmlns="http://www.w3.org/2000/svg">
<g id="domain_add">
<mask id="mask0_2842_12794" style="mask-type:alpha" maskUnits="userSpaceOnUse" x="0" y="0" width="32" height="33">
<rect id="Bounding box" y="0.5" width="32" height="32" fill="#D9D9D9"/>
</mask>
<g mask="url(#mask0_2842_12794)">
<path id="domain_add_2" d="M5.33268 28.5C4.59935 28.5 3.97157 28.2389 3.44935 27.7167C2.92713 27.1944 2.66602 26.5667 2.66602 25.8333V7.16667C2.66602 6.43333 2.92713 5.80556 3.44935 5.28333C3.97157 4.76111 4.59935 4.5 5.33268 4.5H13.3327C14.066 4.5 14.6938 4.76111 15.216 5.28333C15.7382 5.80556 15.9993 6.43333 15.9993 7.16667V9.83333H26.666C27.3993 9.83333 28.0271 10.0944 28.5494 10.6167C29.0716 11.1389 29.3327 11.7667 29.3327 12.5V19.1667C29.3327 19.5444 29.2049 19.8611 28.9493 20.1167C28.6938 20.3722 28.3771 20.5 27.9993 20.5C27.6216 20.5 27.3049 20.3722 27.0494 20.1167C26.7938 19.8611 26.666 19.5444 26.666 19.1667V12.5H15.9993V15.1667H18.666V17.8333H15.9993V20.5H18.666V23.1667H15.9993V25.8333H19.9993C20.3771 25.8333 20.6938 25.9611 20.9494 26.2167C21.2049 26.4722 21.3327 26.7889 21.3327 27.1667C21.3327 27.5444 21.2049 27.8611 20.9494 28.1167C20.6938 28.3722 20.3771 28.5 19.9993 28.5H5.33268ZM5.33268 25.8333H7.99935V23.1667H5.33268V25.8333ZM5.33268 20.5H7.99935V17.8333H5.33268V20.5ZM5.33268 15.1667H7.99935V12.5H5.33268V15.1667ZM5.33268 9.83333H7.99935V7.16667H5.33268V9.83333ZM10.666 25.8333H13.3327V23.1667H10.666V25.8333ZM10.666 20.5H13.3327V17.8333H10.666V20.5ZM10.666 15.1667H13.3327V12.5H10.666V15.1667ZM10.666 9.83333H13.3327V7.16667H10.666V9.83333ZM27.9993 31.1667C27.6216 31.1667 27.3049 31.0389 27.0494 30.7833C26.7938 30.5278 26.666 30.2111 26.666 29.8333V28.5H25.3327C24.9549 28.5 24.6382 28.3722 24.3827 28.1167C24.1271 27.8611 23.9993 27.5444 23.9993 27.1667C23.9993 26.7889 24.1271 26.4722 24.3827 26.2167C24.6382 25.9611 24.9549 25.8333 25.3327 25.8333H26.666V24.5C26.666 24.1222 26.7938 23.8056 27.0494 23.55C27.3049 23.2944 27.6216 23.1667 27.9993 23.1667C28.3771 23.1667 28.6938 23.2944 28.9493 23.55C29.2049 23.8056 29.3327 24.1222 29.3327 24.5V25.8333H30.666C31.0438 25.8333 31.3605 25.9611 31.616 26.2167C31.8716 26.4722 31.9993 26.7889 31.9993 27.1667C31.9993 27.5444 31.8716 27.8611 31.616 28.1167C31.3605 28.3722 31.0438 28.5 30.666 28.5H29.3327V29.8333C29.3327 30.2111 29.2049 30.5278 28.9493 30.7833C28.6938 31.0389 28.3771 31.1667 27.9993 31.1667ZM21.3327 17.8333V15.1667H23.9993V17.8333H21.3327ZM21.3327 23.1667V20.5H23.9993V23.1667H21.3327Z" fill="#3A3A3A"/>
</g>
</g>
</svg>
