<svg width="64" height="65" viewBox="0 0 64 65" fill="none" xmlns="http://www.w3.org/2000/svg">
<g id="domain">
<path id="Vector" d="M32.0006 19.1667V8.5H5.33398V56.5H58.6673V19.1667H32.0006ZM16.0007 51.1667H10.6673V45.8333H16.0007V51.1667ZM16.0007 40.5H10.6673V35.1667H16.0007V40.5ZM16.0007 29.8333H10.6673V24.5H16.0007V29.8333ZM16.0007 19.1667H10.6673V13.8333H16.0007V19.1667ZM26.6673 51.1667H21.334V45.8333H26.6673V51.1667ZM26.6673 40.5H21.334V35.1667H26.6673V40.5ZM26.6673 29.8333H21.334V24.5H26.6673V29.8333ZM26.6673 19.1667H21.334V13.8333H26.6673V19.1667ZM53.334 51.1667H32.0006V45.8333H37.334V40.5H32.0006V35.1667H37.334V29.8333H32.0006V24.5H53.334V51.1667ZM48.0006 29.8333H42.6673V35.1667H48.0006V29.8333ZM48.0006 40.5H42.6673V45.8333H48.0006V40.5Z" fill="#3A3A3A"/>
</g>
</svg>
