<svg width="32" height="33" viewBox="0 0 32 33" fill="none" xmlns="http://www.w3.org/2000/svg">
<g id="domain_verification">
<mask id="mask0_2842_12815" style="mask-type:alpha" maskUnits="userSpaceOnUse" x="0" y="0" width="32" height="33">
<rect id="Bounding box" y="0.5" width="32" height="32" fill="#D9D9D9"/>
</mask>
<g mask="url(#mask0_2842_12815)">
<path id="domain_verification_2" d="M5.33268 27.1668C4.59935 27.1668 3.97157 26.9057 3.44935 26.3835C2.92713 25.8613 2.66602 25.2335 2.66602 24.5002V8.50016C2.66602 7.76683 2.92713 7.13905 3.44935 6.61683C3.97157 6.09461 4.59935 5.8335 5.33268 5.8335H26.666C27.3993 5.8335 28.0271 6.09461 28.5493 6.61683C29.0716 7.13905 29.3327 7.76683 29.3327 8.50016V24.5002C29.3327 25.2335 29.0716 25.8613 28.5493 26.3835C28.0271 26.9057 27.3993 27.1668 26.666 27.1668H5.33268ZM5.33268 24.5002H26.666V11.1668H5.33268V24.5002ZM14.5993 22.5668L9.86602 17.8335L11.7993 15.9002L14.5993 18.7002L20.1993 13.1002L22.1327 15.0335L14.5993 22.5668Z" fill="#3A3A3A"/>
</g>
</g>
</svg>
