<svg width="18" height="18" viewBox="0 0 18 18" fill="none" xmlns="http://www.w3.org/2000/svg">
<g id="drive_file_move_rtl">
<path id="Vector" d="M15 4.5H9L7.79289 3.29289C7.60536 3.10536 7.351 3 7.08579 3H3C2.175 3 1.5 3.675 1.5 4.5V13.5C1.5 14.325 2.175 15 3 15H15C15.825 15 16.5 14.325 16.5 13.5V6C16.5 5.175 15.825 4.5 15 4.5ZM15 13.5H3V4.5H6.8775L8.3775 6H15V13.5ZM9.70617 11.339C9.90038 11.5344 9.89989 11.8501 9.70506 12.0449L9.35355 12.3964C9.15829 12.5917 8.84171 12.5917 8.64645 12.3964L6.70711 10.4571C6.31658 10.0666 6.31658 9.43342 6.70711 9.04289L8.64645 7.10355C8.84171 6.90829 9.15829 6.90829 9.35355 7.10355L9.70506 7.45506C9.89989 7.64989 9.90038 7.96561 9.70617 8.16105L8.8725 9H11.5C11.7761 9 12 9.22386 12 9.5V10C12 10.2761 11.7761 10.5 11.5 10.5H8.8725L9.70617 11.339Z" fill="#595959"/>
</g>
</svg>
