<svg width="24" height="25" viewBox="0 0 24 25" fill="none" xmlns="http://www.w3.org/2000/svg">
<g id="eye close">
<path id="Vector" d="M12 6.58711C15.79 6.58711 19.17 8.71711 20.82 12.0871C20.23 13.3071 19.4 14.3571 18.41 15.2071L19.82 16.6171C21.21 15.3871 22.31 13.8471 23 12.0871C21.27 7.69711 17 4.58711 12 4.58711C10.73 4.58711 9.51 4.78711 8.36 5.15711L10.01 6.80711C10.66 6.67711 11.32 6.58711 12 6.58711ZM10.93 7.72711L13 9.79711C13.57 10.0471 14.03 10.5071 14.28 11.0771L16.35 13.1471C16.43 12.8071 16.49 12.4471 16.49 12.0771C16.5 9.59711 14.48 7.58711 12 7.58711C11.63 7.58711 11.28 7.63711 10.93 7.72711ZM2.01 4.45711L4.69 7.13711C3.06 8.41711 1.77 10.1171 1 12.0871C2.73 16.4771 7 19.5871 12 19.5871C13.52 19.5871 14.98 19.2971 16.32 18.7671L19.74 22.1871L21.15 20.7771L3.42 3.03711L2.01 4.45711ZM9.51 11.9571L12.12 14.5671C12.08 14.5771 12.04 14.5871 12 14.5871C10.62 14.5871 9.5 13.4671 9.5 12.0871C9.5 12.0371 9.51 12.0071 9.51 11.9571ZM6.11 8.55711L7.86 10.3071C7.63 10.8571 7.5 11.4571 7.5 12.0871C7.5 14.5671 9.52 16.5871 12 16.5871C12.63 16.5871 13.23 16.4571 13.77 16.2271L14.75 17.2071C13.87 17.4471 12.95 17.5871 12 17.5871C8.21 17.5871 4.83 15.4571 3.18 12.0871C3.88 10.6571 4.9 9.47711 6.11 8.55711Z" fill="#6F6F6F"/>
</g>
</svg>
