<svg width="56" height="57" viewBox="0 0 56 57" fill="none" xmlns="http://www.w3.org/2000/svg">
<path d="M20.9987 28.6118L25.6654 33.2785L34.9987 23.9452M46.6654 30.9452C46.6654 42.6118 38.4987 48.4452 28.792 51.8285C28.2837 52.0008 27.7316 51.9925 27.2287 51.8052C17.4987 48.4452 9.33203 42.6118 9.33203 30.9452V14.6118C9.33203 13.993 9.57786 13.3995 10.0154 12.9619C10.453 12.5243 11.0465 12.2785 11.6654 12.2785C16.332 12.2785 22.1654 9.47851 26.2254 5.93185C26.7197 5.50951 27.3485 5.27747 27.9987 5.27747C28.6489 5.27747 29.2777 5.50951 29.772 5.93185C33.8554 9.50185 39.6654 12.2785 44.332 12.2785C44.9509 12.2785 45.5444 12.5243 45.9819 12.9619C46.4195 13.3995 46.6654 13.993 46.6654 14.6118V30.9452Z" stroke="#00812B" stroke-width="4.66667" stroke-linecap="round" stroke-linejoin="round"/>
</svg>
