<svg width="32" height="33" viewBox="0 0 32 33" fill="none" xmlns="http://www.w3.org/2000/svg">
<path d="M20.666 10.6118L23.7327 13.6784C23.9819 13.9227 24.317 14.0596 24.666 14.0596C25.015 14.0596 25.3501 13.9227 25.5994 13.6784L28.3993 10.8784C28.6437 10.6292 28.7805 10.2941 28.7805 9.94511C28.7805 9.59611 28.6437 9.26101 28.3993 9.01178L25.3327 5.94511M27.9993 3.27844L15.1993 16.0784M17.3327 21.2784C17.3327 25.3285 14.0494 28.6118 9.99935 28.6118C5.94926 28.6118 2.66602 25.3285 2.66602 21.2784C2.66602 17.2284 5.94926 13.9451 9.99935 13.9451C14.0494 13.9451 17.3327 17.2284 17.3327 21.2784Z" stroke="#151515" stroke-width="2.66667" stroke-linecap="round" stroke-linejoin="round"/>
</svg>
