<svg width="55" height="40" viewBox="0 0 55 40" fill="none" xmlns="http://www.w3.org/2000/svg">
<path d="M54.3585 7.44601C54.5456 7.12199 54.4346 6.70766 54.1106 6.52058C47.8731 2.91938 39.8973 5.05649 36.2961 11.294L27.1125 27.2004C25.2183 30.4812 26.3424 34.6762 29.6232 36.5704C32.9039 38.4645 37.099 37.3405 38.9931 34.0597L54.3585 7.44601Z" fill="#3395FF"/>
<path d="M0.33873 7.44601C0.151655 7.12199 0.262674 6.70766 0.586698 6.52058C6.82416 2.91938 14.8 5.05649 18.4012 11.294L27.5848 27.2004C29.4789 30.4812 28.3549 34.6762 25.0741 36.5704C21.7934 38.4645 17.5983 37.3405 15.7042 34.0597L0.33873 7.44601Z" fill="#3395FF"/>
<path fill-rule="evenodd" clip-rule="evenodd" d="M32.5736 16.4186C34.2776 18.5595 34.5978 21.6093 33.1468 24.1224L27.4409 34.0053C27.3684 34.1308 27.2926 34.2531 27.2136 34.3722C27.1545 34.2802 27.0973 34.1863 27.042 34.0905L21.3361 24.2077C19.442 20.9269 20.5661 16.7319 23.8468 14.8377C26.7952 13.1355 30.482 13.8709 32.5736 16.4186Z" fill="#0070E8"/>
</svg>
