<svg width="18" height="18" viewBox="0 0 18 18" fill="none" xmlns="http://www.w3.org/2000/svg">
<path d="M9 16.3125C9.825 16.3125 10.5 15.6375 10.5 14.8125H7.5C7.5 15.6375 8.175 16.3125 9 16.3125ZM13.7929 12.1054C13.6054 11.9179 13.5 11.6635 13.5 11.3983V8.0625C13.5 5.76 12.2775 3.8325 10.125 3.3225V2.8125C10.125 2.19 9.6225 1.6875 9 1.6875C8.3775 1.6875 7.875 2.19 7.875 2.8125V3.3225C5.73 3.8325 4.5 5.7525 4.5 8.0625V11.3983C4.5 11.6635 4.39464 11.9179 4.20711 12.1054L3.15533 13.1572C3.05587 13.2566 3 13.3915 3 13.5322C3 13.8251 3.23744 14.0625 3.53033 14.0625H14.4697C14.7626 14.0625 15 13.8251 15 13.5322C15 13.3915 14.9441 13.2566 14.8447 13.1572L13.7929 12.1054ZM12 12.5625H6V8.0625C6 6.2025 7.1325 4.6875 9 4.6875C10.8675 4.6875 12 6.2025 12 8.0625V12.5625Z" fill="currentColor"/>
</svg>
