<svg width="18" height="18" viewBox="0 0 18 18" fill="none" xmlns="http://www.w3.org/2000/svg">
<g id="person_remove">
<g id="Vector">
<path d="M10.125 6C10.125 4.3425 8.7825 3 7.125 3C5.4675 3 4.125 4.3425 4.125 6C4.125 7.6575 5.4675 9 7.125 9C8.7825 9 10.125 7.6575 10.125 6ZM8.625 6C8.625 6.825 7.95 7.5 7.125 7.5C6.3 7.5 5.625 6.825 5.625 6C5.625 5.175 6.3 4.5 7.125 4.5C7.95 4.5 8.625 5.175 8.625 6Z" fill="#3A3A3A"/>
<path d="M1.125 13.5V15H13.125V13.5C13.125 11.505 9.1275 10.5 7.125 10.5C5.1225 10.5 1.125 11.505 1.125 13.5ZM2.625 13.5C2.775 12.9675 5.1 12 7.125 12C9.1425 12 11.4525 12.96 11.625 13.5H2.625Z" fill="#3A3A3A"/>
<path d="M16.875 7.5H12.375V9H16.875V7.5Z" fill="#3A3A3A"/>
</g>
</g>
</svg>
