<svg width="24" height="24" viewBox="0 0 24 24" fill="none" xmlns="http://www.w3.org/2000/svg">
<path d="M15.9762 14.4713H15.1862L14.9062 14.2013C16.1062 12.8013 16.7262 10.8913 16.3862 8.86133C15.9162 6.08133 13.5962 3.86133 10.7962 3.52133C6.56621 3.00133 3.00621 6.56133 3.52621 10.7913C3.86621 13.5913 6.08621 15.9113 8.86621 16.3813C10.8962 16.7213 12.8062 16.1013 14.2062 14.9013L14.4762 15.1813V15.9713L18.7262 20.2213C19.1362 20.6313 19.8062 20.6313 20.2162 20.2213C20.6262 19.8113 20.6262 19.1413 20.2162 18.7313L15.9762 14.4713ZM9.97621 14.4713C7.48621 14.4713 5.47621 12.4613 5.47621 9.97133C5.47621 7.48133 7.48621 5.47133 9.97621 5.47133C12.4662 5.47133 14.4762 7.48133 14.4762 9.97133C14.4762 12.4613 12.4662 14.4713 9.97621 14.4713Z" fill="black"/>
</svg>
