<svg width="32" height="33" viewBox="0 0 32 33" fill="none" xmlns="http://www.w3.org/2000/svg">
<path d="M11.9987 16.6119L14.6654 19.2786L19.9987 13.9453M26.6654 17.9453C26.6654 24.6119 21.9987 27.9453 16.452 29.8786C16.1616 29.977 15.8461 29.9723 15.5587 29.8653C9.9987 27.9453 5.33203 24.6119 5.33203 17.9453V8.61195C5.33203 8.25833 5.47251 7.91919 5.72256 7.66914C5.9726 7.41909 6.31174 7.27861 6.66536 7.27861C9.33203 7.27861 12.6654 5.67861 14.9854 3.65195C15.2678 3.41061 15.6272 3.27802 15.9987 3.27802C16.3702 3.27802 16.7296 3.41061 17.012 3.65195C19.3454 5.69195 22.6654 7.27861 25.332 7.27861C25.6857 7.27861 26.0248 7.41909 26.2748 7.66914C26.5249 7.91919 26.6654 8.25833 26.6654 8.61195V17.9453Z" stroke="#151515" stroke-width="2.66667" stroke-linecap="round" stroke-linejoin="round"/>
</svg>
