<svg width="24" height="24" viewBox="0 0 24 24" fill="none" xmlns="http://www.w3.org/2000/svg">
<path d="M20.9369 8.69383L15.2816 8.18057L13.0733 2.7424C12.676 1.75253 11.3206 1.75253 10.9233 2.7424L8.71497 8.19279L3.07141 8.69383C2.04318 8.77938 1.62254 10.1236 2.4054 10.8324L6.69357 14.7186L5.40829 20.4867C5.1746 21.5377 6.26125 22.3687 7.14926 21.8065L11.9983 18.7514L16.8473 21.8188C17.7353 22.3809 18.822 21.5499 18.5883 20.4989L17.303 14.7186L21.5912 10.8324C22.374 10.1236 21.9651 8.77938 20.9369 8.69383ZM11.9983 16.4661L7.60496 19.2402L8.7734 14.0098L4.89418 10.4903L10.0119 10.0259L11.9983 5.10098L13.9963 10.0381L19.1141 10.5025L15.2349 14.022L16.4033 19.2524L11.9983 16.4661Z" fill="#595959"/>
</svg>
