<svg width="24" height="24" viewBox="0 0 24 24" fill="none" xmlns="http://www.w3.org/2000/svg">
<path d="M21.4081 11.4125L12.5781 2.5825C12.2081 2.2125 11.6981 2.0025 11.1681 2.0025H3.99811C2.89811 2.0025 1.99811 2.9025 1.99811 4.0025V11.1725C1.99811 11.7025 2.20811 12.2125 2.58811 12.5825L11.4181 21.4125C12.1981 22.1925 13.4681 22.1925 14.2481 21.4125L21.4181 14.2425C22.1981 13.4625 22.1981 12.2025 21.4081 11.4125ZM12.8281 20.0025L3.99811 11.1725V4.0025H11.1681L19.9981 12.8325L12.8281 20.0025Z" fill="#595959"/>
<path d="M6.49811 8.0025C7.32654 8.0025 7.99811 7.33093 7.99811 6.5025C7.99811 5.67408 7.32654 5.0025 6.49811 5.0025C5.66968 5.0025 4.99811 5.67408 4.99811 6.5025C4.99811 7.33093 5.66968 8.0025 6.49811 8.0025Z" fill="#595959"/>
</svg>
