<svg width="181" height="176" viewBox="0 0 181 176" fill="none" xmlns="http://www.w3.org/2000/svg">
<g id="undraw_no_data_re_kwbl 1" clip-path="url(#clip0_1753_43612)">
<path id="Vector" d="M114.77 39.6231H66.2678C65.1625 39.6244 64.1029 40.0645 63.3214 40.8467C62.5398 41.6289 62.1002 42.6894 62.0988 43.7956V151.684L61.5429 151.854L49.6446 155.501C49.0807 155.673 48.4716 155.614 47.9511 155.337C47.4305 155.06 47.041 154.588 46.8681 154.024L11.4759 38.3185C11.3037 37.7541 11.3624 37.1443 11.6391 36.6232C11.9159 36.1022 12.388 35.7124 12.9518 35.5395L31.2871 29.9205L84.442 13.6363L102.777 8.01727C103.056 7.93132 103.349 7.90128 103.64 7.92888C103.931 7.95648 104.213 8.04118 104.471 8.17811C104.729 8.31505 104.957 8.50155 105.143 8.72693C105.329 8.95231 105.468 9.21215 105.554 9.49157L114.6 39.0667L114.77 39.6231Z" fill="#F6F6F6"/>
<path id="Vector_2" d="M125.354 39.0662L114.45 3.42137C114.269 2.82746 113.972 2.27515 113.577 1.79599C113.183 1.31684 112.697 0.920228 112.15 0.628832C111.602 0.337436 111.002 0.15696 110.384 0.097724C109.766 0.0384878 109.143 0.101652 108.55 0.283602L82.7713 8.18088L29.6193 24.4678L3.84094 32.3679C2.64341 32.7359 1.64071 33.5644 1.05292 34.6716C0.465126 35.7788 0.340271 37.0742 0.705763 38.2734L37.9711 160.093C38.2681 161.061 38.8671 161.908 39.6805 162.511C40.4939 163.113 41.4787 163.438 42.4904 163.439C42.9587 163.44 43.4243 163.369 43.8717 163.231L61.5427 157.818L62.0986 157.645V157.064L61.5427 157.233L43.7077 162.699C42.6507 163.022 41.509 162.912 40.5331 162.393C39.5572 161.874 38.8268 160.989 38.502 159.932L1.23951 38.1093C1.07861 37.5855 1.02253 37.0351 1.07449 36.4895C1.12644 35.944 1.2854 35.414 1.54227 34.9301C1.79914 34.4461 2.14888 34.0176 2.57145 33.6691C2.99402 33.3206 3.48112 33.059 4.00487 32.8992L29.7832 24.9991L82.9354 8.71497L108.714 0.814914C109.111 0.693575 109.524 0.631707 109.939 0.63132C110.831 0.633323 111.698 0.92094 112.414 1.45204C113.13 1.98315 113.658 2.72983 113.919 3.58272L124.773 39.0662L124.945 39.6226H125.523L125.354 39.0662Z" fill="#B0B0B0"/>
<path id="Vector_3" d="M34.5985 35.6299C34.0629 35.6295 33.5414 35.4573 33.1106 35.1386C32.6799 34.8198 32.3626 34.3713 32.2052 33.8589L28.6253 22.1557C28.5291 21.8413 28.4957 21.5111 28.527 21.1838C28.5584 20.8565 28.6538 20.5386 28.8079 20.2483C28.9621 19.9579 29.1718 19.7008 29.4252 19.4916C29.6786 19.2824 29.9707 19.1252 30.2849 19.029L79.1843 4.04564C79.8186 3.8519 80.5038 3.91797 81.0896 4.22936C81.6753 4.54074 82.1137 5.07199 82.3084 5.70651L85.8883 17.4098C86.0818 18.0447 86.0157 18.7305 85.7046 19.3167C85.3935 19.9029 84.8628 20.3416 84.2289 20.5367L35.3293 35.52C35.0925 35.5927 34.8462 35.6298 34.5985 35.6299Z" fill="#004CB2"/>
<path id="Vector_4" d="M53.3477 12.579C56.4177 12.579 58.9064 10.0882 58.9064 7.01557C58.9064 3.94298 56.4177 1.45215 53.3477 1.45215C50.2778 1.45215 47.7891 3.94298 47.7891 7.01557C47.7891 10.0882 50.2778 12.579 53.3477 12.579Z" fill="#004CB2"/>
<path id="Vector_5" d="M53.348 10.539C55.2921 10.539 56.868 8.96176 56.868 7.0161C56.868 5.07044 55.2921 3.49316 53.348 3.49316C51.404 3.49316 49.8281 5.07044 49.8281 7.0161C49.8281 8.96176 51.404 10.539 53.348 10.539Z" fill="white"/>
<path id="Vector_6" d="M167.995 162.018H74.0538C73.4275 162.017 72.827 161.768 72.3841 161.325C71.9413 160.882 71.6921 160.281 71.6914 159.654V46.9943C71.6921 46.3675 71.9412 45.7665 72.3841 45.3232C72.827 44.8799 73.4275 44.6306 74.0538 44.6299H167.995C168.622 44.6306 169.222 44.8799 169.665 45.3232C170.108 45.7665 170.357 46.3675 170.358 46.9943V159.654C170.357 160.281 170.108 160.881 169.665 161.325C169.222 161.768 168.622 162.017 167.995 162.018Z" fill="#F6F6F6"/>
<path id="Vector_7" d="M124.777 39.0664H66.2717C65.0192 39.0682 63.8184 39.567 62.9327 40.4534C62.047 41.3399 61.5486 42.5417 61.5469 43.7953V157.234L62.1027 157.064V43.7953C62.1041 42.6891 62.5438 41.6286 63.3253 40.8464C64.1069 40.0641 65.1665 39.6241 66.2717 39.6227H124.949L124.777 39.0664ZM175.778 39.0664H66.2717C65.0192 39.0682 63.8184 39.567 62.9327 40.4534C62.047 41.3399 61.5486 42.5417 61.5469 43.7953V171.198C61.5486 172.451 62.047 173.653 62.9327 174.54C63.8184 175.426 65.0192 175.925 66.2717 175.927H175.778C177.03 175.925 178.231 175.426 179.117 174.54C180.002 173.653 180.501 172.451 180.503 171.198V43.7953C180.501 42.5417 180.002 41.3399 179.117 40.4534C178.231 39.567 177.03 39.0682 175.778 39.0664ZM179.947 171.198C179.945 172.304 179.506 173.364 178.724 174.147C177.943 174.929 176.883 175.369 175.778 175.37H66.2717C65.1665 175.369 64.1069 174.929 63.3253 174.147C62.5438 173.364 62.1041 172.304 62.1027 171.198V43.7953C62.1041 42.6891 62.5438 41.6286 63.3253 40.8464C64.1069 40.0641 65.1665 39.6241 66.2717 39.6227H175.778C176.883 39.6241 177.943 40.0641 178.724 40.8464C179.506 41.6286 179.945 42.6891 179.947 43.7953V171.198Z" fill="#B0B0B0"/>
<path id="Vector_8" d="M146.59 51.3062H95.4506C94.7874 51.3054 94.1516 51.0414 93.6827 50.5721C93.2137 50.1027 92.95 49.4664 92.9492 48.8026V36.5631C92.95 35.8994 93.2138 35.263 93.6827 34.7937C94.1516 34.3243 94.7874 34.0603 95.4506 34.0596H146.59C147.254 34.0603 147.889 34.3243 148.358 34.7937C148.827 35.263 149.091 35.8994 149.092 36.5631V48.8026C149.091 49.4664 148.827 50.1027 148.358 50.5721C147.889 51.0414 147.254 51.3054 146.59 51.3062Z" fill="#004CB2"/>
<path id="Vector_9" d="M121.02 34.8944C124.09 34.8944 126.578 32.4036 126.578 29.331C126.578 26.2584 124.09 23.7676 121.02 23.7676C117.95 23.7676 115.461 26.2584 115.461 29.331C115.461 32.4036 117.95 34.8944 121.02 34.8944Z" fill="#004CB2"/>
<path id="Vector_10" d="M121.022 32.7197C122.892 32.7197 124.408 31.2025 124.408 29.331C124.408 27.4595 122.892 25.9424 121.022 25.9424C119.153 25.9424 117.637 27.4595 117.637 29.331C117.637 31.2025 119.153 32.7197 121.022 32.7197Z" fill="white"/>
</g>
<defs>
<clipPath id="clip0_1753_43612">
<rect width="180" height="175.853" fill="white" transform="translate(0.5 0.0742188)"/>
</clipPath>
</defs>
</svg>
