<svg width="24" height="24" viewBox="0 0 24 24" fill="none" xmlns="http://www.w3.org/2000/svg">
<g id="verified">
<g id="Vector">
<path d="M22.7132 12.3191C22.8775 12.1306 22.8773 11.8497 22.7127 11.6614L20.7012 9.36145C20.611 9.25836 20.5671 9.1228 20.5797 8.98642L20.8598 5.94639C20.8828 5.69664 20.7172 5.46848 20.4727 5.41293L17.4998 4.73765C17.3659 4.70723 17.2504 4.62308 17.1804 4.50493L15.6239 1.87787C15.4958 1.66173 15.2273 1.57417 14.9964 1.6733L12.1973 2.87528C12.0713 2.92937 11.9287 2.92937 11.8027 2.87528L9.00358 1.6733C8.77273 1.57417 8.50418 1.66173 8.37612 1.87787L6.82005 4.50426C6.74982 4.6228 6.63378 4.7071 6.49935 4.73727L3.52863 5.40382C3.28347 5.45883 3.11721 5.68724 3.1402 5.93745L3.42038 8.98649C3.43291 9.12283 3.38898 9.25834 3.29885 9.3614L1.28786 11.6608C1.12303 11.8493 1.12303 12.1307 1.28786 12.3192L3.29885 14.6186C3.38898 14.7217 3.43291 14.8572 3.42038 14.9935L3.14009 18.0437C3.11715 18.2934 3.28271 18.5215 3.52724 18.577L6.49984 19.2523C6.63398 19.2827 6.74964 19.3671 6.8196 19.4856L8.37577 22.1204C8.5039 22.3373 8.77344 22.425 9.00471 22.325L11.8022 21.1155C11.9285 21.0609 12.0716 21.0607 12.198 21.115L14.9964 22.3167C15.2273 22.4158 15.4958 22.3283 15.6239 22.1121L17.1804 19.4851C17.2503 19.3669 17.3659 19.2828 17.4998 19.2524L20.4727 18.5771C20.7172 18.5215 20.8828 18.2934 20.8598 18.0436L20.5796 15.0031C20.5671 14.867 20.6108 14.7317 20.7006 14.6287L22.7132 12.3191ZM19.05 13.47L18.6289 13.9587C18.5402 14.0618 18.4972 14.1965 18.5099 14.3319L18.57 14.97L18.7097 16.4832C18.7327 16.7331 18.5669 16.9614 18.3221 17.0168L16.2196 17.4926C16.0858 17.5229 15.9703 17.6068 15.9002 17.7247L15.57 18.28L14.8041 19.5797C14.6761 19.7969 14.4063 19.8849 14.1748 19.7847L12.8 19.19L12.1968 18.9336C12.0711 18.8802 11.929 18.8805 11.8036 18.9345L11.21 19.19L9.8341 19.7852C9.6031 19.8851 9.33383 19.7978 9.20548 19.5813L8.44 18.29L8.10983 17.7347C8.03971 17.6168 7.92422 17.5329 7.79041 17.5026L5.68765 17.0268C5.44293 16.9714 5.27715 16.7432 5.3001 16.4934L5.44 14.97L5.50005 14.3319C5.5128 14.1965 5.46983 14.0618 5.38106 13.9587L4.96 13.47L3.95843 12.3287C3.79327 12.1405 3.7928 11.8591 3.95733 11.6704L4.96 10.52L5.37904 10.0336C5.469 9.9292 5.51187 9.79229 5.49752 9.65522L5.43 9.01L5.29055 7.507C5.26735 7.25699 5.43317 7.02855 5.67806 6.97314L7.78041 6.49743C7.91422 6.46715 8.02971 6.38322 8.09983 6.26529L8.43 5.71L9.19588 4.41032C9.32391 4.19306 9.59371 4.10514 9.82516 4.20527L11.2 4.8L11.8032 5.05636C11.9289 5.10978 12.071 5.10946 12.1964 5.05546L12.79 4.8L14.1648 4.20527C14.3963 4.10514 14.6661 4.19306 14.7941 4.41032L15.56 5.71L15.8902 6.26529C15.9603 6.38322 16.0758 6.46715 16.2096 6.49743L18.3121 6.97319C18.5569 7.02858 18.7227 7.25688 18.6997 7.50682L18.56 9.02L18.4999 9.65807C18.4872 9.79347 18.5302 9.92823 18.6189 10.0313L19.04 10.52L20.0427 11.6626C20.2074 11.8503 20.2084 12.1306 20.0451 12.3195L19.05 13.47Z" fill="#3A3A3A"/>
<path d="M10.4443 13.3945C10.2489 13.5906 9.93122 13.5905 9.73585 13.3943L8.12474 11.7763C7.92914 11.5798 7.61105 11.58 7.41569 11.7767L6.64072 12.5569C6.44676 12.7522 6.44708 13.0675 6.64144 13.2624L9.73597 16.365C9.93134 16.5609 10.2487 16.5609 10.444 16.365L17.0786 9.71236C17.2729 9.51749 17.2733 9.20219 17.0793 9.00693L16.3042 8.22654C16.1089 8.02992 15.7909 8.02966 15.5953 8.22596L10.4443 13.3945Z" fill="#3A3A3A"/>
</g>
</g>
</svg>
